# xmcd
#
# Track frame offsets: 
#        150
#        14978
#        30931
#        48590
#        70676
#        93306
#        111815
#        128086
#        145905
#        162896
#        183784
#        200886
#        219989
#        235423
#        252495
#        273691
#        291658
#        309278
#        331230
#
# Disc length: 4638 seconds
#
# Revision: 0
# Processed by: cddbd v1.5.1PL2 Copyright (c) Steve Scherf et al.
# Submitted via: ExactAudioCopy v0.95b2
#
DISCID=21121c13
DTITLE=Various Artist - Love radio - Love story - Disc 2
DYEAR=1900
DGENRE=Ballad
TTITLE0=Marc Anthony/She Won't Get Any Better
TTITLE1=Ronan Keating/If Tommorow Never Comes
TTITLE2=Highland/Bella Stella
TTITLE3=Darren Hayes/Creepin' Up On You
TTITLE4=A-Ha/Time And Again
TTITLE5=Phil Collins/This Love This Heart
TTITLE6=Sahra Connor/French Kissin
TTITLE7=Garbage/Drive You Home
TTITLE8=Tiziano Ferro/Rosso Relativo
TTITLE9=Def Leppard/Long, Long Way To Go
TTITLE10=David Charvet/Fall Into You
TTITLE11=Anactacia/You'll Never Be Alone (Live)
TTITLE12=Morcheeba/Undress Me Now
TTITLE13=Glenn Medeiros/Nothing's Gonna Change
TTITLE14=Christrina Aguilera/El Beso Del Final
TTITLE15=Ben/Angel (feat. Gim)
TTITLE16=Sandra G Enigma/Now
TTITLE17=Pet Shop Boys/Love Is A Catastrophe
TTITLE18=Shakira/Underneath Your Clothes
EXTD=
EXTT0=
EXTT1=
EXTT2=
EXTT3=
EXTT4=
EXTT5=
EXTT6=
EXTT7=
EXTT8=
EXTT9=
EXTT10=
EXTT11=
EXTT12=
EXTT13=
EXTT14=
EXTT15=
EXTT16=
EXTT17=
EXTT18=
PLAYORDER=
